<svg xmlns="http://www.w3.org/2000/svg" version="1.1" xmlns:xlink="http://www.w3.org/1999/xlink" xmlns:svgjs="http://svgjs.dev/svgjs" width="1500" height="937" viewBox="0 0 1500 937"><g transform="matrix(1,0,0,1,0,0)"><svg viewBox="0 0 512 320" data-background-color="#ffffff" preserveAspectRatio="xMidYMid meet" height="937" width="1500" xmlns="http://www.w3.org/2000/svg" xmlns:xlink="http://www.w3.org/1999/xlink"><g id="tight-bounds" transform="matrix(1,0,0,1,0,0)"><svg viewBox="0 0 512 320" height="320" width="512"><g><svg></svg></g><g><svg viewBox="0 0 512 320" height="320" width="512"><g><path d="M96 160c0-88.366 71.634-160 160-160 88.366 0 160 71.634 160 160 0 88.366-71.634 160-160 160-88.366 0-160-71.634-160-160zM256 317.191c86.814 0 157.191-70.377 157.191-157.191 0-86.814-70.377-157.191-157.191-157.191-86.814 0-157.191 70.377-157.191 157.191 0 86.814 70.377 157.191 157.191 157.191z" fill="#000000" fill-rule="nonzero" stroke="none" stroke-width="1" stroke-linecap="butt" stroke-linejoin="miter" stroke-miterlimit="10" stroke-dasharray="" stroke-dashoffset="0" font-family="none" font-weight="none" font-size="none" text-anchor="none" style="mix-blend-mode: normal" data-fill-palette-color="tertiary"></path></g><g transform="matrix(1,0,0,1,116,20)"><svg viewBox="0 0 280 280" height="280" width="280"><g><svg viewBox="0 0 280 280" height="280" width="280"><g><svg viewBox="0 0 280 280" height="280" width="280"><g id="textblocktransform"><svg viewBox="0 0 280 280" height="280" width="280" id="textblock"><g><svg viewBox="0 0 280 280" height="280" width="280"><g transform="matrix(1,0,0,1,76.53301944717718,8.006734178511124)"><svg viewBox="0 0 126.93396110564564 263.98653164297775" height="263.98653164297775" width="126.93396110564564"><g id="icon-0"><svg xmlns="http://www.w3.org/2000/svg" xmlns:xlink="http://www.w3.org/1999/xlink" version="1.1" x="0" y="0" viewBox="28.361 4.999 43.27562986781301 90.001" enable-background="new 0 0 100 100" xml:space="preserve" height="263.98653164297775" width="126.93396110564564" class="icon-jxe-0" data-fill-palette-color="accent" id="jxe-0"><g fill="#092136" data-fill-palette-color="accent"><circle cx="44.758" cy="24.983" r="6.8" fill="#092136" data-fill-palette-color="accent"></circle><path d="M64.335 50.182C59.805 43.588 60.629 33.623 52.661 33.623H36.854A8.494 8.494 0 0 0 28.361 42.116C28.361 43.496 29.234 61.752 29.234 61.752A2.869 2.869 0 0 0 34.97 61.752L34.097 42.41A0.991 0.991 0 1 1 36.08 42.41L39.573 63.482H39.574S39.806 69.105 37.526 74.59C35.387 79.741 30.723 84.668 30.842 87.793 30.892 89.105 32.504 91.506 34.553 91.506S37.783 89.014 38.264 87.793C39.452 84.785 43.651 81.069 45.236 76.481 46.821 71.895 45.788 66.436 46.996 63.436 47.161 63.025 47.559 62.18 48.251 62.18S49.312 63.035 49.504 63.436C51.029 66.602 52.997 70.199 52.997 77.051 52.997 84.115 49.565 87.62 49.504 91.284 49.485 92.6 51.165 95 53.215 95 55.268 95 56.455 92.513 56.928 91.288 58.231 87.92 60.337 80.883 60.421 77.271 60.529 72.621 56.766 59.023 56.766 59.023L53.436 42.41C53.436 41.863 53.881 41.438 54.428 41.418 55.122 41.393 55.822 48.175 58.577 52.594 61.668 57.542 66.896 59.321 68.765 59.381 70.347 59.434 71.753 57.52 71.629 56.514 71.473 55.227 67.382 54.621 64.335 50.182" fill="#092136" data-fill-palette-color="accent"></path><path d="M35.836 14.045C38.685 15.28 42.426 15.897 46.168 15.897 49.909 15.897 53.65 15.28 56.498 14.044A0.437 0.437 0 0 0 56.151 13.243C50.647 15.629 41.691 15.63 36.185 13.243 34.214 12.388 33.083 11.249 33.083 10.12S34.214 7.852 36.185 6.997C39.675 5.485 45.352 5.484 48.84 6.997 50.042 7.518 50.73 8.194 50.73 8.851S50.042 10.184 48.84 10.705C46.643 11.658 43.066 11.659 40.866 10.705 40.167 10.402 39.75 10.013 39.75 9.663S40.167 8.924 40.866 8.621C42.215 8.037 44.495 8.036 45.845 8.621 46.273 8.807 46.465 9.017 46.465 9.144 46.465 9.27 46.274 9.482 45.845 9.667 45.015 10.027 43.614 10.027 42.783 9.667 42.569 9.574 42.503 9.478 42.478 9.495 42.488 9.471 42.565 9.38 42.783 9.286A0.437 0.437 0 0 0 42.436 8.484C41.716 8.796 41.608 9.239 41.608 9.475 41.608 9.712 41.715 10.155 42.436 10.468 43.488 10.924 45.139 10.924 46.192 10.467 47.189 10.035 47.338 9.452 47.338 9.143S47.189 8.25 46.192 7.819C44.601 7.13 42.109 7.13 40.519 7.819 39.09 8.439 38.877 9.24 38.877 9.663 38.877 10.085 39.09 10.887 40.519 11.506 42.908 12.543 46.796 12.543 49.187 11.506 50.744 10.83 51.603 9.887 51.603 8.851 51.603 7.814 50.746 6.872 49.187 6.196 45.507 4.6 39.518 4.6 35.837 6.196 33.497 7.21 32.209 8.604 32.209 10.12 32.208 11.636 33.497 13.03 35.836 14.045" fill="#092136" data-fill-palette-color="accent"></path></g></svg></g></svg></g><g id="text-0"><path d="M136.906 6.452c-0.009-0.939 0.325-1.768 1.002-2.487 0.677-0.727 1.499-1.095 2.467-1.105v0c1.899-0.018 2.858 0.94 2.876 2.876v0c0.011 1.106-0.323 2.03-0.999 2.771-0.684 0.734-1.485 1.106-2.402 1.115-0.924 0.009-1.644-0.283-2.158-0.875-0.515-0.599-0.777-1.364-0.786-2.295z" fill="#092136" data-fill-palette-color="primary"></path><path d="M139.322 276.462c0-0.204 0.074-0.378 0.22-0.524 0.146-0.152 0.321-0.229 0.524-0.228v0c0.4 0.001 0.6 0.205 0.599 0.613v0c0 0.233-0.074 0.429-0.219 0.589-0.146 0.152-0.317 0.229-0.514 0.228-0.196 0-0.345-0.063-0.447-0.187-0.109-0.131-0.163-0.295-0.163-0.491z" fill="#092136" data-fill-palette-color="primary"></path><path d="M0 136.296c0-1.37 1.111-2.481 2.481-2.481 1.37 0 2.481 1.111 2.48 2.481 0 1.37-1.111 2.481-2.48 2.481-1.37 0-2.481-1.111-2.481-2.481z" fill="#092136" data-fill-palette-color="primary"></path><path d="M275.039 136.296c0-1.37 1.111-2.481 2.48-2.481 1.37 0 2.481 1.111 2.481 2.481 0 1.37-1.111 2.481-2.481 2.481-1.37 0-2.481-1.111-2.48-2.481z" fill="#092136" data-fill-palette-color="primary"></path></g><g id="text-1"></g></svg></g></svg></g></svg></g><g></g></svg></g></svg></g></svg></g><defs></defs></svg><rect width="512" height="320" fill="none" stroke="none" visibility="hidden"></rect></g></svg></g></svg>